<svg width="18" height="18" viewBox="0 0 18 18" fill="none" xmlns="http://www.w3.org/2000/svg">
<path d="M12.4326 0.995725C12.3434 1.02218 12.2144 1.10155 12.1284 1.18423C11.9961 1.30659 11.9167 1.44548 11.5133 2.2954C11.2586 2.83114 11.0271 3.29412 10.9974 3.32719C10.9312 3.40326 10.9544 3.39664 9.82008 3.56861C8.73206 3.73396 8.6593 3.75711 8.44434 4.00183C8.11364 4.37884 8.13348 4.91127 8.48734 5.30481C8.55017 5.37426 8.60308 5.4404 8.60308 5.45363C8.60308 5.46355 6.9694 5.47678 4.97194 5.48008L1.34411 5.49L1.11262 5.60244C0.86128 5.72811 0.623173 5.94307 0.490891 6.16795C0.292468 6.50857 0.302389 6.24732 0.302389 11.6742C0.302389 17.0581 0.295775 16.7935 0.484277 17.144C0.593409 17.3425 0.86128 17.607 1.0564 17.7062C1.40364 17.8848 0.993563 17.8749 8.75851 17.8749C13.9506 17.8749 15.991 17.865 16.1167 17.8385C16.4871 17.7592 16.8707 17.4781 17.046 17.154C17.2444 16.7902 17.2345 17.0614 17.2345 11.6576C17.2345 6.19771 17.2477 6.50527 17.0261 6.13818C16.9666 6.04228 16.8476 5.89677 16.7583 5.8174L16.5929 5.6752L16.8343 5.42056C17.1022 5.14276 17.1981 4.96418 17.2246 4.69631C17.2609 4.34576 17.0427 3.94231 16.7351 3.78357C16.6458 3.74058 16.2787 3.66782 15.5611 3.55869C14.6186 3.41318 14.5062 3.39003 14.44 3.32058C14.4003 3.27759 14.1655 2.81791 13.9241 2.2987C13.5504 1.50501 13.4578 1.33304 13.3289 1.20076C13.0907 0.962654 12.7733 0.889899 12.4326 0.995725ZM12.8857 1.56784C12.9684 1.61745 13.0643 1.79603 13.4314 2.58311C13.8216 3.41648 13.8977 3.55869 14.0432 3.7075C14.1589 3.82325 14.2614 3.8927 14.3739 3.92908C14.4665 3.95553 14.9625 4.04152 15.4817 4.11758C16.001 4.19695 16.4573 4.27962 16.5003 4.30608C16.6161 4.37884 16.6855 4.5508 16.6557 4.69962C16.6359 4.80875 16.5268 4.93442 15.8753 5.58921C15.0981 6.37629 15.0188 6.47881 14.9725 6.77975C14.9559 6.86904 15.0055 7.23613 15.118 7.91407C15.2073 8.46304 15.2833 8.97563 15.2833 9.04839C15.2833 9.15752 15.2635 9.20382 15.1709 9.29642C15.1014 9.36586 15.0254 9.40886 14.9725 9.40886C14.9229 9.40886 14.4962 9.1972 13.9837 8.91941C13.0114 8.38698 12.9287 8.3506 12.7204 8.3506C12.5087 8.3506 12.4293 8.38698 11.4571 8.91941C10.9643 9.18728 10.5278 9.40886 10.4881 9.40886C10.3724 9.40886 10.2368 9.31957 10.1905 9.21043C10.1376 9.08146 10.1508 8.95248 10.336 7.80494C10.4848 6.90211 10.4881 6.87566 10.4385 6.68715C10.412 6.57802 10.3558 6.44574 10.3161 6.38621C10.2798 6.32999 9.92259 5.9563 9.52575 5.55614C9.06938 5.09316 8.7982 4.79552 8.78497 4.736C8.74859 4.60041 8.79158 4.43505 8.88418 4.34907C8.96024 4.27962 9.0826 4.25317 9.99866 4.11096C11.1297 3.939 11.2355 3.90593 11.4339 3.67774C11.5067 3.59176 11.7249 3.17176 11.9994 2.59634C12.2441 2.07713 12.4624 1.63399 12.4823 1.60753C12.5748 1.4984 12.7468 1.47855 12.8857 1.56784ZM9.55221 6.37629C9.79031 6.62101 9.88622 6.74337 9.89945 6.81613C9.90606 6.87235 9.83661 7.39156 9.74071 7.9736C9.53236 9.2435 9.53567 9.30964 9.80023 9.64696C9.85645 9.71972 9.98212 9.81232 10.1111 9.87515C10.3029 9.97105 10.3426 9.97767 10.5377 9.96113C10.7427 9.9479 10.8089 9.91483 11.672 9.44193C12.426 9.02524 12.6112 8.93595 12.7204 8.93595C12.8295 8.93595 13.0213 9.02855 13.7786 9.44523L14.7013 9.95452H14.9526C15.1643 9.95452 15.2271 9.94129 15.3759 9.85861C15.6669 9.69657 15.8422 9.39893 15.8455 9.06162C15.8455 8.95248 15.7728 8.42336 15.6835 7.88431C15.5942 7.34526 15.5313 6.85912 15.5413 6.80952C15.5512 6.74999 15.6702 6.60117 15.8621 6.40275L16.1663 6.09189L16.2887 6.16464C16.4309 6.25393 16.5863 6.46558 16.6359 6.64747C16.6591 6.74007 16.6723 7.61644 16.6723 9.49815V12.2198H8.76843H0.864587V9.49815C0.864587 6.51188 0.86128 6.57141 1.06301 6.32669C1.11592 6.26055 1.23828 6.16795 1.33419 6.12165L1.50615 6.03567H5.36217H9.2215L9.55221 6.37629ZM16.6723 13.923V15.0639H8.76843H0.864587V13.923V12.782H8.76843H16.6723V13.923ZM16.6657 16.1618C16.6557 16.6083 16.6458 16.7207 16.5929 16.8166C16.5069 16.9787 16.3482 17.1407 16.1928 17.2234L16.0605 17.2962H8.76843H1.47639L1.34411 17.2234C1.18868 17.1407 1.02994 16.9787 0.943957 16.8166C0.891044 16.7207 0.881123 16.6083 0.871202 16.1618L0.857973 15.6261H8.76843H16.6789L16.6657 16.1618Z" fill="#EB212E"/>
<path d="M2.54124 7.20962C2.35273 7.27576 2.20392 7.41135 2.07825 7.63953C2.0088 7.76851 2.00549 7.79827 2.00549 8.84661C2.00549 9.88502 2.0088 9.92471 2.07825 10.0537C2.17085 10.229 2.3362 10.3811 2.51809 10.4638C2.66029 10.5299 2.72974 10.5332 4.25429 10.5332H5.84167L6.00702 10.4538C6.09962 10.4141 6.22859 10.3182 6.29474 10.2422C6.49977 10.0173 6.51961 9.88833 6.51961 8.84661C6.51961 7.77182 6.50308 7.67591 6.26828 7.42127C6.01694 7.15671 6.0434 7.16001 4.24106 7.16001C2.9943 7.16332 2.64045 7.17324 2.54124 7.20962ZM5.84828 7.80158L5.94088 7.88095V8.84661V9.81227L5.84828 9.89164L5.75569 9.971H4.25429H2.75289L2.66029 9.89164L2.56769 9.81227L2.55777 8.86976L2.54785 7.93055L2.63383 7.82473L2.72312 7.72221H4.23775H5.75569L5.84828 7.80158Z" fill="#EB212E"/>
<path d="M12.588 9.44853C12.4524 9.5279 12.4425 9.5742 12.4392 10.1099C12.4392 10.6093 12.4425 10.6325 12.5186 10.7184C12.5781 10.7879 12.6244 10.811 12.7203 10.811C12.8162 10.811 12.8625 10.7879 12.922 10.7184C12.9981 10.6325 13.0014 10.6093 13.0014 10.1166V9.60066L12.9055 9.50475C12.803 9.40554 12.6972 9.3857 12.588 9.44853Z" fill="#EB212E"/>
<path d="M11.4637 10.0108C11.3281 10.0902 11.3182 10.1332 11.3149 10.6888V11.2212L11.4207 11.3105C11.5398 11.413 11.682 11.4064 11.7944 11.2939C11.8539 11.2311 11.8605 11.1749 11.8705 10.6987L11.8804 10.1695L11.7812 10.0703C11.6787 9.96782 11.5761 9.94798 11.4637 10.0108Z" fill="#EB212E"/>
<path d="M13.6595 10.067L13.5636 10.1629V10.6788C13.5636 11.1716 13.5669 11.1947 13.643 11.2807C13.7025 11.3501 13.7488 11.3733 13.8447 11.3733C13.9406 11.3733 13.9869 11.3501 14.0464 11.2807C14.1225 11.1947 14.1258 11.1716 14.1258 10.6788V10.1629L14.0299 10.067C13.9704 10.0108 13.8976 9.9711 13.8447 9.9711C13.7918 9.9711 13.719 10.0108 13.6595 10.067Z" fill="#EB212E"/>
<path d="M12.5351 11.1913C12.4458 11.2806 12.4392 11.3071 12.4392 11.5254C12.4392 11.7436 12.4458 11.7701 12.5351 11.8594C12.6608 11.985 12.7798 11.985 12.9055 11.8594C12.9948 11.7701 13.0014 11.7436 13.0014 11.5254C13.0014 11.3071 12.9948 11.2806 12.9055 11.1913C12.846 11.1351 12.7732 11.0954 12.7203 11.0954C12.6674 11.0954 12.5946 11.1351 12.5351 11.1913Z" fill="#EB212E"/>
</svg>
