<svg width="19" height="18" viewBox="0 0 19 18" fill="none" xmlns="http://www.w3.org/2000/svg">
<path d="M8.81842 1.03498C7.69423 1.23764 6.64651 1.92592 6.01558 2.8704C4.46695 5.19144 5.48408 8.30018 8.11102 9.28671C9.2658 9.72263 10.6883 9.59644 11.736 8.96552C12.9672 8.22752 13.7052 7.05745 13.8391 5.63882C14.0494 3.43632 12.4969 1.41353 10.3059 1.03116C9.8929 0.962328 9.21992 0.962328 8.81842 1.03498ZM9.97703 1.77679C11.323 1.94504 12.451 2.8551 12.8869 4.12078C13.0399 4.56434 13.0896 4.93142 13.0628 5.44763C13.0361 5.97531 12.9443 6.33093 12.711 6.80508C11.9425 8.36136 10.1376 9.11847 8.47428 8.58314C7.3998 8.239 6.55091 7.3557 6.20677 6.23151C6.10736 5.91413 6.09971 5.83766 6.09971 5.25644C6.09971 4.67905 6.10736 4.59875 6.20295 4.28902C6.6618 2.79392 7.95807 1.79974 9.51817 1.74238C9.59465 1.74238 9.80113 1.75768 9.97703 1.77679Z" fill="#EB212E"/>
<path d="M4.75754 9.41296C3.37715 10.3651 2.37149 11.5505 1.70233 13.015C1.48055 13.5006 1.26259 14.1315 1.14406 14.6477C0.983458 15.336 0.94522 15.6954 0.926101 16.7967L0.906982 17.875H9.57551H18.244L18.2249 16.7967C18.2134 16.0855 18.1829 15.5884 18.1446 15.3437C17.7278 12.797 16.4354 10.7933 14.2558 9.31736C14.0952 9.20647 13.9537 9.11853 13.9461 9.11853C13.9346 9.11853 13.8199 9.26001 13.6861 9.43208C13.2158 10.0401 12.8296 10.3957 12.2292 10.7666C11.7054 11.0916 11.0706 11.3325 10.4167 11.4549C10.0611 11.5237 9.03636 11.5237 8.69604 11.4549C7.93128 11.3096 7.10917 10.9501 6.52795 10.5104C6.15704 10.2312 5.68672 9.75327 5.40376 9.3709C5.30434 9.23324 5.21257 9.11853 5.2011 9.11853C5.18962 9.12235 4.99079 9.25236 4.75754 9.41296ZM5.44582 10.6022C6.6159 11.7416 7.97334 12.2961 9.59463 12.3037C10.4741 12.3076 11.1203 12.1737 11.9042 11.8296C12.6613 11.4969 13.166 11.149 13.7855 10.5333L14.1335 10.1854L14.3782 10.3651C14.707 10.6098 15.3953 11.2828 15.7012 11.6613C16.3704 12.4949 16.8636 13.4471 17.1619 14.4909C17.3263 15.0722 17.4143 15.6878 17.4525 16.5252L17.4793 17.072H9.57551H1.67174L1.69851 16.529C1.73674 15.6878 1.82469 15.0722 1.98911 14.4909C2.36385 13.1832 2.98712 12.1049 3.93542 11.1298C4.27574 10.778 4.9449 10.193 5.00608 10.1892C5.01755 10.1892 5.21639 10.3766 5.44582 10.6022Z" fill="#EB212E"/>
</svg>
